HIERARCHY
ROOT Hips
{
	OFFSET 0.00000 0.00000 0.00000
	CHANNELS 6 Xposition Yposition Zposition Yrotation Zrotation Xrotation 
	JOINT Lumbar
	{
		OFFSET 0 0 0
		CHANNELS 3 Zrotation Xrotation Yrotation
		JOINT Neck
		{
			OFFSET 0.00 0.2701 0.00
			CHANNELS 3 Zrotation Xrotation Yrotation
			End Site
			{
				OFFSET 0.00 0.1379 0.00
			}
		}
		JOINT RightShoulder
		{
			OFFSET 0.0119 0.2289 0.1181
			CHANNELS 3 Zrotation Xrotation Yrotation
			JOINT RightElbow
			{
				OFFSET 0.00 -0.1475 0.00
				CHANNELS 2 Zrotation Yrotation
				JOINT RightWrist
				{
					OFFSET 0.00 -0.1605 0.00
					CHANNELS 2 Zrotation Xrotation
					End Site
					{
						OFFSET 0.0040 -0.1068 0.0006
					}
				}
			}
		}
		JOINT LeftShoulder
		{
			OFFSET 0.0119 0.2289 -0.1181
			CHANNELS 3 Zrotation Xrotation Yrotation
			JOINT LeftElbow
			{
				OFFSET 0.00 -0.1475 0.00
				CHANNELS 2 Zrotation Yrotation
				JOINT LeftWrist
				{
					OFFSET 0.00 -0.1605 0.00
					CHANNELS 2 Zrotation Xrotation
					End Site
					{
						OFFSET 0.0040 -0.1068 -0.0006
					}
				}
			}
		}
	}
	JOINT RightHip
	{
		OFFSET 0.0316 -0.0424 0.0458
		CHANNELS 3 Zrotation Xrotation Yrotation
		JOINT RightKnee
		{
			OFFSET 0.00 -0.2438 0.00
			CHANNELS 1 Zrotation
			JOINT RightAnkle
			{
				OFFSET 0.00 -0.2449 0.00
				CHANNELS 3 Zrotation Xrotation Yrotation
				End Site
				{
					OFFSET 0.1237 -0.0542 0.0051
				}
			}
		}
	}
	JOINT LeftHip
	{
		OFFSET 0.0316 -0.0424 -0.0458
		CHANNELS 3 Zrotation Xrotation Yrotation
		JOINT LeftKnee
		{
			OFFSET 0.00 -0.2438 0.00
			CHANNELS 1 Zrotation
			JOINT LeftAnkle
			{
				OFFSET 0.00 -0.2449 0.00
				CHANNELS 3 Zrotation Xrotation Yrotation
				End Site
				{
					OFFSET 0.1237 -0.0542 -0.0051
				}
			}
		}
	}
}
MOTION
Frames: 11
Frame Time: 0.02
0 0.57926 0 176.29649 0 -4.61574 6.67158 3.78552 -0.22724 -24.38092 1.31377 2.43641 6.08373 -67.08538 -86.61832 21.71599 76.20362 -30.43299 -2.14101 24.36266 66.97115 60.70778 19.01291 -76.2187 -29.16176 2.35332 -0.44766 5.88718 -3.77784 -10.00099 1.64314 -3.94839 -9.57834 -2.94092 5.66575 5.69988 -6.82476 7.43131 5.80426 9.3267
-0.0003 0.57923 -0.00023 176.29791 0 -4.62515 6.79443 3.68215 -0.36817 -24.61083 1.57072 2.58279 6.74876 -67.41789 -86.15229 21.74267 76.13353 -30.5307 -2.16025 24.54589 66.75729 60.91084 19.04931 -76.44757 -29.07416 2.36708 -0.48338 5.91621 -3.79318 -9.99428 1.66326 -3.98399 -9.57201 -2.95596 5.69303 5.71289 -6.85413 7.4555 5.82035 9.33591
-0.00061 0.5792 -0.00046 176.29945 0 -4.63453 6.91682 3.5795 -0.50886 -24.84021 1.82655 2.72874 7.4126 -67.74893 -85.68672 21.76966 76.06444 -30.62715 -2.17954 24.7289 66.54376 61.11362 19.08488 -76.67569 -28.98608 2.38084 -0.51911 5.94504 -3.8084 -9.98742 1.68325 -4.01929 -9.56578 -2.97105 5.72011 5.72576 -6.88324 7.47958 5.83636 9.34509
-0.00091 0.57917 -0.00068 176.30128 0 -4.64387 7.03838 3.47843 -0.65004 -25.06895 2.0807 2.87487 8.07538 -68.07797 -85.22073 21.79789 75.99889 -30.71986 -2.1987 24.91138 66.32914 61.31753 19.11805 -76.9041 -28.89568 2.39483 -0.55519 5.97346 -3.82321 -9.97982 1.70293 -4.05367 -9.55958 -2.98656 5.7468 5.73881 -6.91136 7.50319 5.85213 9.35394
-0.00122 0.57914 -0.00093 176.30136 0 -4.65342 7.16411 3.36868 -0.78871 -25.30013 2.34413 3.0206 8.74042 -68.41839 -84.75969 21.81926 75.9148 -30.8328 -2.21794 25.09494 66.11989 61.5158 19.16459 -77.13226 -28.81812 2.40772 -0.58932 6.00417 -3.84008 -9.97607 1.72425 -4.09286 -9.55287 -2.99993 5.77575 5.75163 -6.94443 7.52896 5.86906 9.36418
-0.00152 0.57911 -0.00112 176.30528 0 -4.6625 7.28104 3.27761 -0.93251 -25.52656 2.58741 3.16666 9.40228 -68.73384 -84.2868 21.85533 75.86988 -30.90258 -2.23737 25.27722 65.89976 61.72556 19.18237 -77.35984 -28.71313 2.42285 -0.62761 6.02993 -3.85264 -9.96423 1.74211 -4.12187 -9.54746 -3.01775 5.79978 5.76443 -6.96719 7.55035 5.88359 9.37169
-0.0018 0.57907 -0.00117 176.31908 0 -4.67062 7.37472 3.23577 -1.09509 -25.74023 2.78188 3.32075 10.05379 -68.99124 -83.78281 21.93238 75.9376 -30.85288 -2.25452 25.4511 65.64036 61.9755 19.12202 -77.59939 -28.52968 2.44566 -0.6785 6.04271 -3.85273 -9.92837 1.75022 -4.12239 -9.54373 -3.04929 5.81128 5.78183 -6.95929 7.55811 5.89113 9.36984
-0.00209 0.57904 -0.00117 176.33695 0 -4.6782 7.45939 3.2132 -1.26212 -25.94923 2.95487 3.474 10.70261 -69.22159 -83.26644 22.02419 76.04447 -30.75957 -2.27225 25.62493 65.37154 62.23531 19.03244 -77.83603 -28.31893 2.47053 -0.73346 6.05034 -3.84864 -9.88465 1.75489 -4.11273 -9.54159 -3.0851 5.81765 5.79843 -6.94131 7.56173 5.8963 9.36548
-0.00237 0.579 -0.00118 176.3534 0 -4.68583 7.54765 3.1833 -1.4244 -26.16046 3.13362 3.62329 11.35512 -69.45773 -82.75348 22.10917 76.13016 -30.68638 -2.29173 25.80199 65.11251 62.48601 18.95513 -78.06558 -28.1221 2.4935 -0.78595 6.05991 -3.84677 -9.84552 1.76122 -4.10799 -9.54003 -3.11805 5.8257 5.81229 -6.92939 7.56831 5.90283 9.36359
-0.00266 0.57896 -0.00122 176.36783 0 -4.69432 7.63819 3.14736 -1.5984 -26.37138 3.32967 3.79111 11.99911 -69.72185 -82.24814 22.19499 76.22871 -30.61207 -2.30326 25.96485 64.82968 62.75807 18.8816 -78.33097 -27.91853 2.52042 -0.84109 6.07127 -3.84332 -9.80192 1.76703 -4.10199 -9.5332 -3.15483 5.83647 5.83896 -6.91142 7.57045 5.90824 9.35648
-0.00294 0.57893 -0.0012 176.38768 0 -4.70085 7.72166 3.12863 -1.74877 -26.58161 3.48403 3.91986 12.65771 -69.92053 -81.72628 22.28212 76.31158 -30.52956 -2.33078 26.15808 64.59493 62.9856 18.79387 -78.52057 -27.72296 2.53975 -0.89161 6.07758 -3.84247 -9.76599 1.77323 -4.09624 -9.53746 -3.18472 5.84037 5.83911 -6.90344 7.58072 5.91534 9.35915
